<?xml version="1.0" standalone="no"?>
<!DOCTYPE svg PUBLIC "-//W3C//DTD SVG 20010904//EN"
 "http://www.w3.org/TR/2001/REC-SVG-20010904/DTD/svg10.dtd">
<svg version="1.0" xmlns="http://www.w3.org/2000/svg"
 width="1024.000000pt" height="739.601613pt" viewBox="0 0 1024.000000 739.601613"
 preserveAspectRatio="xMidYMid meet">
<rect width="100%" height="100%" fill="#F4F1E9"/>
<metadata>
Created by potrace 1.16, written by Peter Selinger 2001-2019
</metadata>
<g transform="translate(0.000000,883.175095) scale(0.100000,-0.100000)"
fill="#142842" stroke="none">
<path d="M3363 7525 c-13 -9 -23 -26 -23 -39 0 -36 56 -115 146 -203 145 -142
267 -211 634 -363 96 -40 177 -74 179 -76 32 -29 -250 56 -515 156 -275 104
-401 130 -623 130 -296 -1 -356 -70 -186 -216 203 -175 444 -295 705 -351 67
-14 125 -18 280 -17 107 1 226 6 263 11 37 5 70 7 72 4 7 -12 -45 -107 -79
-147 -22 -25 -59 -52 -98 -69 l-63 -29 -320 -7 c-176 -4 -356 -12 -400 -19
-276 -41 -497 -145 -690 -324 -32 -31 -60 -56 -62 -56 -2 0 -3 30 -3 68 0 79
-26 133 -80 170 -30 20 -44 23 -97 20 -77 -5 -133 -40 -178 -113 -26 -42 -30
-58 -30 -119 0 -51 7 -84 22 -118 27 -59 93 -132 151 -165 l45 -26 -6 -69 c-8
-89 -48 -178 -100 -223 -59 -50 -121 -61 -257 -46 -72 8 -115 9 -127 3 -10 -6
-54 -48 -98 -94 -43 -45 -170 -175 -280 -288 -111 -113 -209 -221 -218 -242
-37 -79 -5 -148 68 -148 114 0 268 100 467 304 l147 150 208 -40 c195 -37 219
-39 388 -38 151 0 192 4 257 22 274 75 490 238 618 465 17 31 34 57 37 57 10
0 -7 -103 -29 -178 -11 -40 -19 -74 -16 -77 11 -11 505 84 626 120 66 20 80
19 168 -16 130 -52 250 -50 612 12 95 16 187 29 204 29 21 0 67 -21 132 -60
153 -90 209 -112 296 -117 65 -5 78 -2 102 16 105 83 -22 251 -285 377 -98 47
-183 62 -406 74 -109 5 -199 14 -207 20 -10 9 -8 24 12 78 76 202 147 307 227
336 23 8 88 20 145 26 198 20 320 89 386 217 23 46 21 51 -25 63 -53 15 -89
31 -89 42 0 4 32 8 70 8 87 0 93 9 55 87 -63 128 -243 337 -359 415 -99 68
-252 108 -409 108 -42 0 -53 5 -95 43 -311 284 -713 452 -1132 473 -97 5 -118
3 -137 -11z m1630 -796 c61 -31 76 -105 32 -157 -33 -39 -74 -48 -118 -27 -76
36 -77 142 -2 183 26 15 61 15 88 1z"/>
<path d="M6085 7205 c-40 -39 -33 -62 45 -156 165 -198 249 -428 237 -649 -10
-199 -83 -385 -221 -564 -79 -103 -92 -139 -60 -170 24 -25 61 -30 88 -12 37
24 172 209 215 294 86 172 123 318 122 488 -1 229 -75 438 -229 646 -116 155
-146 174 -197 123z"/>
<path d="M7010 6981 c-133 -41 -198 -152 -187 -320 11 -180 39 -438 53 -496
27 -113 105 -186 216 -204 31 -5 212 -10 404 -11 216 0 351 -4 354 -10 4 -6
12 -61 18 -123 20 -193 46 -246 127 -261 29 -6 36 -12 44 -44 6 -20 37 -144
69 -274 62 -247 62 -248 16 -262 -65 -20 -89 -103 -46 -163 43 -60 71 -66 337
-71 240 -4 240 -4 275 20 43 29 60 61 60 113 0 22 -54 272 -120 555 -66 283
-120 515 -120 516 0 0 51 4 113 7 61 3 133 13 158 22 65 22 123 75 156 143
l28 57 0 305 0 305 -28 57 c-33 66 -87 114 -154 134 -38 12 -197 14 -897 13
-468 0 -862 -4 -876 -8z m389 -224 c24 -20 29 -51 47 -310 14 -208 15 -259 4
-272 -10 -12 -42 -15 -182 -15 -166 0 -169 0 -193 25 -14 13 -25 34 -25 47 0
13 -11 131 -25 263 -14 132 -25 248 -25 257 0 15 13 18 103 20 149 4 280 -2
296 -15z"/>
<path d="M5895 6875 c-14 -13 -25 -31 -25 -39 0 -9 20 -45 44 -80 138 -202
138 -439 -1 -649 -42 -63 -44 -70 -33 -97 13 -31 56 -52 89 -43 26 7 107 126
138 205 71 176 69 366 -5 531 -31 67 -80 145 -114 179 -25 25 -64 23 -93 -7z"/>
<path d="M1957 4203 c-3 -5 85 -307 194 -673 110 -366 209 -695 220 -732 l20
-68 184 0 184 0 45 143 c207 651 263 821 272 824 5 1 58 -154 119 -345 60
-191 129 -409 153 -484 l44 -138 183 0 184 0 15 48 c7 26 107 353 220 728 113
374 206 685 206 692 0 9 -43 12 -165 12 -91 0 -165 -2 -165 -5 0 -3 -56 -196
-124 -428 -68 -232 -134 -459 -147 -504 -12 -46 -26 -83 -30 -83 -9 0 -13 13
-202 620 l-123 395 -161 3 c-160 2 -162 2 -168 -20 -8 -25 -249 -787 -293
-925 -14 -46 -29 -83 -32 -83 -4 0 -74 231 -156 513 l-150 512 -161 3 c-89 1
-164 -1 -166 -5z"/>
<path d="M4450 3469 l0 -740 438 4 c481 4 494 6 615 70 141 74 213 232 188
410 -19 132 -82 223 -186 268 -30 13 -55 27 -55 30 0 4 13 12 29 18 41 18 97
79 123 136 20 43 23 66 23 160 0 92 -4 118 -22 157 -49 107 -156 182 -305 212
-62 13 -151 16 -463 16 l-385 0 0 -741z m770 449 c59 -30 82 -74 77 -146 -4
-63 -28 -99 -83 -127 -34 -18 -63 -20 -236 -23 l-198 -4 0 161 0 161 198 0
c185 0 201 -1 242 -22z m64 -578 c55 -28 71 -63 71 -150 0 -85 -12 -112 -69
-154 -26 -20 -43 -21 -267 -24 l-239 -3 0 176 0 176 238 -3 c186 -2 243 -6
266 -18z"/>
<path d="M6387 4123 c-19 -49 -155 -378 -301 -732 -146 -354 -266 -648 -266
-652 0 -5 76 -9 168 -9 l169 0 59 150 59 150 314 -2 315 -3 59 -147 59 -148
168 0 c93 0 171 3 173 8 2 4 -48 131 -110 282 -63 151 -199 480 -302 730
l-188 455 -170 3 -169 2 -37 -87z m306 -560 c51 -131 92 -241 90 -245 -2 -5
-92 -8 -200 -8 -181 0 -195 1 -191 18 13 46 191 472 198 472 5 0 51 -107 103
-237z"/>
<path d="M7250 4065 l0 -145 225 0 225 0 0 -595 0 -595 165 0 165 0 0 595 0
595 230 0 230 0 0 145 0 145 -620 0 -620 0 0 -145z"/>
</g>
</svg>
